<?xml version="1.0" standalone="no"?>
<!DOCTYPE svg PUBLIC "-//W3C//DTD SVG 20010904//EN"
 "http://www.w3.org/TR/2001/REC-SVG-20010904/DTD/svg10.dtd">
<svg version="1.0" xmlns="http://www.w3.org/2000/svg"
 width="153.000000pt" height="153.000000pt" viewBox="0 0 153.000000 153.000000"
 preserveAspectRatio="xMidYMid meet">
<metadata>
Created by potrace 1.14, written by Peter Selinger 2001-2017
</metadata>
<g transform="translate(0.000000,153.000000) scale(0.100000,-0.100000)"
fill="#000000" stroke="none">
<path d="M327 1100 c-63 -16 -110 -45 -163 -101 -67 -72 -89 -130 -89 -239 1
-102 24 -160 95 -230 73 -74 127 -95 240 -95 84 0 102 3 152 28 65 32 130 99
162 167 31 67 30 216 -3 283 -33 67 -101 134 -168 164 -62 29 -162 39 -226 23z
m313 -152 c0 -68 -34 -142 -94 -206 -34 -37 -46 -57 -46 -80 0 -47 -18 -77
-60 -101 -21 -11 -40 -21 -44 -21 -3 0 -6 23 -6 51 0 47 -3 53 -53 105 -52 51
-56 54 -105 54 -29 0 -52 3 -52 6 0 14 43 75 63 89 12 8 39 15 60 15 30 0 44
6 59 25 25 33 98 82 146 100 20 7 58 14 85 14 l47 1 0 -52z m-349 -304 l24
-26 -24 -19 c-26 -21 -68 -35 -78 -25 -8 8 33 96 45 96 5 0 19 -12 33 -26z"/>
<path d="M471 876 c-15 -18 2 -56 24 -56 26 0 46 29 35 51 -13 22 -43 25 -59
5z"/>
<path d="M745 903 c16 -44 27 -120 23 -164 l-5 -49 314 0 315 0 29 29 c24 25
29 37 29 81 0 62 -11 85 -50 105 -24 12 -83 15 -346 15 -297 0 -316 -1 -309
-17z m91 -65 c-4 -18 -9 -50 -13 -70 -4 -28 -10 -38 -24 -38 -10 0 -17 6 -14
13 2 6 9 38 15 70 8 40 16 57 27 57 12 0 14 -7 9 -32z m90 -20 c14 -43 19 -49
25 -33 4 11 8 29 8 40 1 11 5 27 11 35 18 28 22 0 10 -65 -10 -51 -16 -65 -30
-65 -13 0 -23 15 -36 53 -19 56 -21 54 -38 -25 -7 -32 -26 -38 -26 -8 0 10 5
42 11 70 15 70 41 69 65 -2z m194 42 c0 -5 -15 -10 -34 -10 -25 0 -35 -5 -39
-20 -4 -17 0 -20 29 -20 49 0 46 -28 -3 -32 -31 -2 -39 -7 -41 -25 -4 -24 -32
-32 -32 -10 0 8 5 39 11 70 l12 57 48 0 c27 0 49 -4 49 -10z m55 -27 c-3 -21
-9 -48 -12 -60 -5 -21 -2 -23 37 -23 25 0 39 -4 35 -10 -3 -5 -29 -10 -57 -10
l-50 0 7 48 c11 76 16 92 32 92 12 0 14 -8 8 -37z m136 10 l11 -28 23 28 c13
15 31 27 40 27 12 0 7 -12 -20 -46 -19 -26 -35 -57 -35 -70 0 -17 -6 -24 -18
-24 -15 0 -18 6 -14 30 2 16 -3 48 -12 70 -14 35 -14 40 -1 40 9 0 20 -12 26
-27z"/>
</g>
</svg>
